<svg xmlns="http://www.w3.org/2000/svg" width="630" height="663" viewBox="0 0 630 663">
  <path fill-rule="evenodd" stroke="#000" stroke-linejoin="round" stroke-width=".25" d="M329.5 13.27c4.47 2.51 5.26 13.21 6.65 18.11 3.68 12.97 18.45 52.63 14.35 63.63l-12-11.22c-2.74 4.08-.44 9.91-.35 14.71.28 14.96 2 30.17 3.4 45.06 2.71 28.68 2.24 57.39 5.66 85.94 1.41 11.76-1.73 25.29 1.09 36.77 2.03 8.25 8.59 16.87 12.32 24.53 3.5 7.2 5.45 15 8.88 22.2 5.08-4.9 22.04-20.99 24.09-26.79 1.78-5.05-2.05-49.11-3.15-56.96-1.91-13.65.65-27.99-.78-41.71-2.83-27.27-4.17-55.54-4.24-83.04-.05-20.6-6.95-43.95 1.07-63.51 1.83-4.45 3.62-12.57 8.01-14.72 1.86 29.03 2.68 58.3 5.77 87.23 2.38 22.26.64 44.89 3.48 67.05 3.71 28.95-1.92 62.74 2.75 91.09 4.19-6.42 9.16-12.17 12.54-19.22 2.5-5.2 2.32-11.67 6.46-16.04 3.58 15.29-16.8 41.32-19.25 57.25-1.77 11.49.24 22.53 1.62 33.89 3.43 28.02 2.34 67.61 39.63 71.85 20.27 2.3 42.71-10.29 61.3-16.87-4.68-4.15-12.86-5.86-18.67-8.16-19.06-7.55-44.58-20.94-65.63-18.74-3.76.39-7.14 2.37-10.69 2.9-2.04-4.78 3.75-11.69 6.26-15.95 14.73-25 42.15-11.87 66.43-16.38 4.73-14.85 2.57-37.31.87-52.72-2.74-24.81-.8-50.18-3.28-74.95-.76-7.56.98-15.45-.07-22.98-1.64-11.79-.76-24.03-2.4-35.83-.69-4.97-4.28-11-3.29-15.99 1.3-6.63 5.58-15.75 9.17-21.46 4.87 1.77 5.41 11.02 7.04 15.68 5.86 16.72 10.36 33.65 15.37 50.58 1.56 5.28 6 15.92.59 19.58-4.33-5.92-8.67-11.85-13-17.78-1.06 11.49.98 24.8 2.38 36.22 3.2 26.01 1.65 55.57 1.65 81.98 0 17.01 1.62 38.7-7.28 54 11.75 4.35 23.5 8.71 35.25 13.06 4.04-2.64 23.6-17.12 24.92-20.63 2.69-7.19-1.48-19.73-1.48-27.43 0-25.83.18-53.31-2.64-79-2.66-24.16-12-37.67 5.2-60.34 3.34 3.84 3.67 11.12 4.97 16.03 4.07 15.35 8.27 30.65 12.97 45.85 1.62 5.22 5.48 15.61 2.06 20.15-3.67-4.27-7.33-8.54-11-12.81-2.38 7.2.03 15.69.03 23.12-.01 19.81-.78 43.31 3.97 62.43 10.18-9.93 19.32-18.89 27.52-30.43-5.05-4.97-13.83-5.07-18.46-10.55-8.71-10.33 1.55-31.49 14.04-33.86 14.54-2.76 13.12 24.92 11.18 32.41 5.63 8.06 14.16 13.92 5.72 23.6-3.33-3.16-6.67-6.31-10-9.47-4.25 6.64-7.49 13.73-12.48 19.9-4.39 5.42-14.3 10.72-16.89 17.17-2.81 7.02-1.3 23.53.25 30.8 18.53 3.33 37.05 6.67 55.58 10-2.56 5.23-9.44 18.6-14.73 21.17-8.61 4.18-29.61-2.42-40.73-.18-.28 26.08 1.08 52.37-2.46 78.03-1.48 10.74-1.68 24.44-11.54 31.11-2.21-8.06.72-20.68 1.52-29.13 2.35-24.68 3.87-54.57-.52-78.97-35.16-.21-77.53 24.04-112.74 31.97 10.57 8.32 22.64 14.95 33.94 22.3 4.09 2.66 11.08 4.93 8.8 10.67h-14.42c16.94 26.77 77.49 25.29 75.88 68.03-.26 6.78-1.4 14.22-3.29 20.79-4.38 15.18-19.6 21.6-32.64 28.24-21.78 11.08-43.49 23.1-64.7 35.28-11.39 6.54-23.96 15.35-37.01 17.94-14.47 2.87-27.31-1.65-33.82-15.41-30.11 17.9-63.68 26.49-97.73 32.1-11.42 1.88-27.6 7.56-38.86 5.06 10.15-12 33-16.86 47.31-21.86 28.93-10.11 59.15-23.26 85.28-39.5 4.51-22.95 12.31-42.99 20.89-64.64-24.41-10.93-16.4-43.77-3.12-60.74 7.28-9.29 19.87-17.66 30.77-9.29 33.39 25.66 43.1 79.31 16.98 112.97-6.95 8.96-16.92 17.55-26.25 23.82-4.62 3.11-10.43 5.38-14.27 9.37 12.24 4.41 26.67-5.08 37.16-10.45 25.54-13.09 52.55-25.09 76.9-40.14 8.58-5.3 19.69-7.62 26.43-15.54-2.28-13.11-43.18-34.34-55.49-38.69-4.78 8.21-10.61 21.9-9.16 31.53.85 5.69 5.16 13.82 12.03 10.55 5.02-2.39 4.06-10 7.47-13.39.45 6.35-5.52 34.6-16.8 26.95-16.8-11.39-5.2-44.27 4.43-56.95-3.12-4.45-8.4-7.32-12.26-11.21-8.12-8.17-15.15-16.79-22.74-25.26-3.53-3.95-12.23-8.29-13.95-13.04-1.6-4.42-.12-16.16 1.78-20.49-7.35-5.7-16.03-7.21-22.29-15.04-16.71-20.95-9.64-45.43-16.51-67.69-12.31 30.6-21.57 60.05-49.44 80.81-15.86 11.82-37.84 16.4-55.47 24.92-5.63 31.89 1.16 65.96-3.52 98.04-1.61 11.08-.73 27.86-10.57 35.79-1.04-8.22.79-15.8 1.41-23.83 1.64-21.32 0-42.75 0-64 0-13.1 1.84-29.68-1.41-41.99h-8.24c5.92-5.85 10.33-6.79 8.24-16.38-14.12 13.37-33.51 31.45-41.46 49.37 21.84 22.73 28.5 68.44-1.43 86.57-6.37 3.86-13.35 8-21.11 7.12-14.21-1.61-15.53-12.01-17.63-23.64-3.47-19.27 6.41-45.92 17.28-62.05-3.88-3.65-7.77-7.3-11.65-10.95-7.59 6.12-10.55 22.69-13.77 31.78-10.1 28.46-23.55 63.6 10.46 83.03 22.19 12.68 54.84 3.43 76.89-5.84 24.65-10.36 50.64-23.94 71.84-40.11 4.97-3.79 21.53-14.23 15.06-21.86-10.77-12.7-38.16.37-52.35-9.59-19.46-13.68-2.16-61.54 17.78-67.21 9.79-2.79 20.12 9.46 25.36 16 17.25 21.53 26.81 52.05 17.94 78.52-8.4 25.1-30.4 34.97-50.93 48.08-37.44 23.9-118.5 63.39-145.51 6.89-4.16-8.7-5.9-17.39-7.24-26.77-2.15-15.01 4.85-31.82 8.88-46.02 4.48-15.83 11.82-36.53 21.51-49.95-6.31-5.56-12.61-11.12-18.92-16.68-4.62 18.21-6.72 36.92-14 54.75-1.6-6.28.92-12.73 1.57-19.07 1.61-15.66 1.01-32.53-1.29-48-24.89 8.68-50.42 25.08-69.01 43.77-4.88 4.91-13.16 10.58-16.17 16.84-5.57 11.6-14.02 27.52-12.01 40.76 1.06 7.03 10.8 22.96 19.1 14.31 3.5-3.65 3.32-9.92 6.05-13.68 2.48 20.14-19.54 44.75-28.44 13.77-5.32-18.52 4.69-35.98 11.47-52.77-3.72 1.36-6.95 4.23-11.27 4.48-5.73.33-11.07-2.12-15.5-5.47-25.04-18.98-15.54-58.73-10.5-84.71 1.3-6.66 4.62-13.06 5-19.85-21.19-.9-32.34-21.41-34.8-40.42-4.12-31.85 8.98-63.2 23.77-91.03-23.12-28.45-8.24-63.74 9.14-91.3 3.95-6.25 4.52-16.29 10.89-20.65.87 21.65-19.12 36.68-21.46 56.96-1.04 9.01 5.71 34.21 18.99 30 11.7-3.7 12.45-15.64 18.47-24.22 4.86 18.48-13.47 38.03-24.32 50.21 13.44 13.49 26.88 26.99 40.32 40.48 3.39-17.36 9.17-34.27 6.08-52.19-2.27-13.17-19.54-22.35-9.08-36.18 25.81 18.41 16.09 65.97 5.3 89.89 2.96 3.36 5.69 6.68 4.7 11.25l-15.45-5.25 12.45 16.53 22.67-21.53c.42-25.01 3.35-46.71 13.27-70-14.51-14.78-23.3-35.13-35.91-51.54-4.44-5.79-13.71-12.32-16.71-18.49-3.93-8.09.02-40.55 4.69-48.47 6.74-11.44 21.92-19.22 32.49-26.5 24.91-17.17 50.89-31.08 77.67-45.3 26.01-13.82 52.98-26.35 80.7-36.34 9.74-3.51 24.43-9.3 33.88-2.6 12.13 8.59 6.49 22.33 1.86 33.34-10.27 24.41-27.29 50.34-46.22 68.9 3.2 5.37 6.41 10.73 9.61 16.1-4.75-2.37-9.49-4.73-14.24-7.1l82.24 109.21c2.77-9.54-1.18-35.52-2.52-46.22-2.03-16.2-.86-32.72-2.66-48.99-2.74-24.82-4.08-49.9-4.11-75-.04-21.82-9.76-38.62 6.29-58.23Zm-81 104.14c10.93-15.51 22.36-30.37 34.38-45.05 3.2-3.92 12.65-11.43 12.15-16.85-.91-9.71-13.58-10.45-20.53-9.54-11.31 1.48-56.52 17.66-63.39 25.53 12.46 15.3 24.93 30.6 37.39 45.91Zm168-1.67c15.09-8.08 30.17-16.16 45.26-24.24-8.28-12.21-42.49-2.28-54.26-6.1-.52-4.72 2.88-8.06 5.69-11.67 2.93-3.78 6.16-9.21 10.44-11.62 4.77-2.7 29.93-.31 35.92.77 6.98 1.27 18.76.95 21.76 9.29 2.51 6.96-6.45 14.53-10.77 18.86-14.01 14.03-33.24 26.39-54.04 24.71Zm-212-41.64c-18.74 10.13-37.47 20.27-56.21 30.4 6.02 20.4 13.12 40.04 20.78 59.98 2.04 5.32 6.91 15.74 2.43 20.4l-14-17.9c-2.79 9.46 1.15 23.79 2.46 33.54 1.93 14.38 2.58 59.38 7.27 69.71 1.7 3.74 8.24 7.64 11.27 10.54 5.08-2.75 10.16-5.51 15.25-8.27-3.77-5.65-7.23-13.22-7.97-20-1.5-13.87 10.42-40.75 28.39-36.04 14.69 3.85 37.99 22.18 42.44 37.38 1.71 5.84-1.76 22.03-5.15 27.14-3.14 4.73-28.63 7.86-35.6 11.52v13.69c-2.12-4.41-4.24-8.81-6.36-13.22-3.89 1.84-7.77 3.69-11.66 5.53 9.98 9.7 21.22 19.47 29.63 30.52 4.79 6.3 9.88 16.61 16.03 21.25 9.77-3.92 19.54-7.85 29.31-11.77 2.28-6.13-.01-16.21-.01-23 0-17.2-.27-35.05-2.68-52-.65-4.55-4.73-8.15-3.95-12.94 1.23-7.52 7.29-17.98 11.33-24.39 8.36 29.11 16.72 58.22 25.09 87.33-7.3-.03-10.66-12.84-17.45-15.77v35.18c13.19-7.55 52.54-26.42 52.92-43.42.23-10.17-18.13-29.52-24.37-37.67-25.23-33.02-53.21-65.21-75.19-100.65-4.67 7.25-9.33 14.5-14 21.76 3.29-9.48 6.57-18.95 9.86-28.43-5.38-7.43-31.2-42.33-32.85-48.31-1.79-6.44 3.54-15.33 2.99-22.09Zm-8.88 13.4c.43 16.63-11.73 33.34-9.82 50 2.17 18.86 13.25 33.23 20.7 6.53 1.99 8.41-5.69 40.47-18.48 24.42-14.7-18.44-5.12-43.09.79-63.1 1.29-4.34 2.33-15.93 6.81-17.85Zm104.88.62c2.92 16.02-11.02 33.51-12.73 49.38-.67 6.21 5.47 18.34 13.13 12.88 5.71-4.07 5.6-10.94 8.6-16.63 1.68 8.87-7.71 41.25-21.42 28.68-14.84-13.6 3.72-59.37 12.42-74.31Zm50 17.06c24.54 17.96 27.69 47.83 21.35 75.17-3.52 15.19-14.65 31.44-14.62 47.15.01 9.32 8.83 25.48 18.79 13.93 3.02-3.5 3.23-9.23 4.48-13.43 5.97 20.71-18.11 47.61-27.16 15.23-5.86-20.97 18.5-59.94 16.44-86.73-.9-11.73-7.75-21.98-14.9-30.85-2.17-2.7-6.49-5.02-7.41-8.53-.88-3.39.81-9.39 3.03-11.94Zm-210 3.4c-15.12 8.78-56.57 33.4-65 47.15 6.79 8.87 30.04 22.53 40.48 27.79 6.6 3.31 17.19 9.23 17.97 16.98-6.61 5.32-18.7-5.67-26.57-4 5.31 14.31 26.57 43.1 39.12 51.76 1.19-10.9-2.01-22.95-3.15-33.81-1.81-17.17-.24-34.83-2.43-51.93-.97-7.59-1.42-15.46-2.83-23.02-.76-4.1-3.29-8.08-3.78-12.17-.78-6.4 6.82-12.2 6.19-18.75Zm311 22.41c9.1 2.33 14.44 15.18 9 23.04-3.33-3.27-6.67-6.55-10-9.83-9.37 5.13-3.89 42.23-11 52.97-11.39-7.36-7.94-31.06-22-36.29-13.57 10.04-17.75-21.52-5-20.82 13.7.76 20.89 33.63 27 42.82 3.56-14.06-2.47-43.24 12-51.89Zm-218 43.18c4.84 7.3-3.87 12.64-9.07 15.76-16.98 10.17-34.53 20.48-51.93 29.77-4.9-4.84 2.03-13.45 6.19-16.48 8.67-6.32 45.5-27.61 54.81-29.05Zm235 17.81c3.12 14.9-30.11 26.03-41.42 32.57-3.81 2.2-9.2 8.27-13.58 7.73-.6-2.85-.46-9.2 1.5-11.72 5.01-6.45 45.66-27.81 53.5-28.58Zm40 10.27c18.62 8.89 23.61 41.38 21.2 59.19-.86 6.33-5.18 13.63-4.61 19.96.85 9.63 14.05 14.14 15.31 25.1 1.05 9.1-5.2 22.54-15.11 24.15-8.5 1.38-19.11-2.86-18.04-13.11 1.17-11.31 7.23-20.65 12.27-30.43 5.79-11.23 6.36-28.35 4.21-40.39-1.35-7.6-4.56-15.57-9.21-21.75-2.21-2.94-8.61-7.21-9.29-10.66-.68-3.44 1.13-9.36 3.27-12.06Zm-61 34.76c1.15 3.24-.47 6.46 1.28 9.72 8.27 15.42 25.18 21.62 18.11 41.74-1.89 5.38-6.61 9.67-12.4 10.6-33.46 5.35-18.29-25.82-13.73-41.78 1.97-6.89 1.61-14.76 6.74-20.28ZM230.97 259.5c-8.06-8.02-27.04-23.39-36.11-9 3.88 5.79 7.76 11.58 11.64 17.38 8.16-2.8 16.31-5.59 24.47-8.38ZM120.5 312.1c3.76-2.22 29.25-17.92 30.07-19.91.74-1.79.74-5.61.1-7.44-1.17-3.29-22.11-27.1-25.25-29.25-10.51 15.42-7.86 39.49-4.92 56.6Zm323-53.48c-12 17.83-2.52 37.11 19.42 24.88-6.47-8.29-12.95-16.58-19.42-24.88Zm146 1.54c-3.09 2.11-6.18 4.23-9.26 6.34 2.8 6.38 12.35 8.71 18.26 11.55 1.77-6.97-2.92-14.45-9-17.89Zm-551 18.42c-11.92 11.49-27.22 59.01-24.42 74.92 2.15 12.19 10.21 28.12 25.18 26.06 14.9-2.04 22.56-14.42 33.43-23.06-8.35-13.44-17.9-26.22-25.89-39.79-2.67-4.53-8.75-8.84-10.14-13.86-2.04-7.34 5.96-18.24 1.84-24.27Zm305 17.49c-6 8.55-7.03 20.17-13.17 28.78-10.03 14.06-28.9 25.07-44.18 32.65.79 14.41 1.57 28.81 2.35 43.22 23.49-25.07 46.97-50.15 70.46-75.22-5.15-9.81-10.31-19.62-15.46-29.43Zm176-.15c-13.32 15.17-2.68 28.21 15.14 18.58-1.18-6.1-9.93-15.41-15.14-18.58Zm84 10.24c3.35 11.94-15.94 25.53-5.12 37.95 9.92 11.38 14.03-7.96 17.12-13.11 1.27 7.21-5.72 35.69-17.54 27.53-17.23-11.9-2.47-39.03 5.54-52.37Zm-212 .76c-3.06 2.92-15.94 16.55-17.23 19.83-3.01 7.62-.95 30.11-3.77 40.8-2.33-8.9-4.67-17.8-7-26.69-21.61 18.78-41.11 42.76-59.71 64.43-8.54 9.96-20.12 17.3-14.58 32.21 11.29-4.14 23.12-13.8 32.65-21.09 32.24-24.68 79.91-62.9 69.64-109.49Zm-217 1.38c-1.33.79-2.67 1.59-4 2.38l3 45.34c16.39 2.08 32.83 5.3 49-.28-16-15.81-32-31.63-48-47.44Zm-22 11.99c-6.78 3.74-13.56 7.47-20.33 11.21 4.03 8.39 14.71 15.27 23.33 18.16zm-36 22.88L99.52 358.5c11.09 17.27 28.78 33.74 44.48 46.97 5.12 4.3 10.8 12.2 17.5 13.4-1.16-12.79-2.33-25.58-3.49-38.37-19.23-11.74-29.73-16.85-41.51-37.33Zm438.71 1.2c-5.39 4.37-10.78 8.75-16.17 13.13 5.39.67 10.78 1.33 16.17 2zM273.5 365.33c-7.54 3.06-15.09 6.11-22.63 9.17-3.5 11.8-.77 27.9-8.54 38.35-12.9 17.36-40.14 14.63-55.59 27.65 12.59 11.35 25.17 22.7 37.76 34.05 6.48-14.72 20.92-30.08 32.25-41.31 4.94-4.89 15.08-11.75 17.88-18.06 2.65-5.95-.76-41.21-1.13-49.85Zm-189 8.02c-12.58 12.81-21.48 25.24-38 33.05-6.55 16.82-13.01 50.58-5.66 67.24 3.64 8.25 12.42 19.37 22.66 17.49 10.65-1.96 17.7-14.2 25.66-20.45 16.91-13.27 32.38-26.69 51.45-37.18-9.7-9.61-19.41-19.21-29.11-28.82-.67 3.62-1.33 7.25-2 10.87-20 13.49-40 26.99-60 40.48-5.78-26.34 50.83-38.07 59.77-54.53-8.26-9.38-16.51-18.76-24.77-28.15Zm154 4.85c-13.67 4.54-26.88 7.73-41.04 9.67-6.79.93-14.41-2.65-20.77-1.37v30.58c12.47-2.34 56.67-20.06 65.16-28.58-1.12-3.43-2.23-6.86-3.35-10.3Zm354 27.34c1.57 16.66-17.78 45.65-9.22 57.71 10.58 14.91 18.62-10.31 20.22-17.48 1.84 9.61-6.45 45.34-22.07 32.29-4.13-3.45-7.57-11.17-6.99-16.5 1.12-10.34 7.23-19.47 10.43-29.2 2.87-8.76 4.01-18.42 7.63-26.82Zm-221 3.8c8.82 6.38 17.63 12.77 26.45 19.16-1.47 7.67-5.48 18.63-11.45 24-9.48-6.67-18.97-13.33-28.45-20 4.48-7.72 8.97-15.44 13.45-23.16Zm170.58 37.16c-4.2 7.81-8.39 15.63-12.58 23.44l-32.24-24.44c4.41-7.33 8.81-14.67 13.22-22 10.53 7.67 21.06 15.33 31.6 23Zm-200.55 48c-6.48-11.63-24.55-20.79-30.63-4 4.95 7.17 24.09 9.43 30.63 4Zm80.43 2c-5.76-13.91-25.95-20.01-32.22-3 6.89 6.85 23.71 5.31 32.22 3Zm-301.46 6.53c-5.54-4.11-10.2-6.91-16.55-1.53 2.95 6.47 19.84 9.59 26.29 8.12 5.5-1.27 9.52-6.35 15.26-6.51 2.13 2.95 1.77 8.13-1.21 10.68-6.58 5.64-17.94 8.72-25.45 13.61-6.29 4.1-11.04 12.33-17.34 15.38-1.28-7.47 6.46-15.27 11.25-20.28-3.25-3.23-9.44-3.15-13.22-6.53-7.34-6.57-1.33-20.65 5.03-25.9 15.56-12.85 30.06 5.58 15.94 12.96Zm102 .93c-6.94 3.91-21.06 34.46-21.02 42.54 10.86 12.12 33.74-2.15 41.45-12-3.85-11.9-11.31-22.04-20.43-30.54Zm221.43 35.54c1.19-17.87-35.8-13.55-46.43-13.22-7.75 14.48-17.99 42.72-15 58.59 22.72-16.45 41.07-25.11 61.43-45.37Zm-292.43-2.28c1.86 2.99.22 9.91-2.62 12.17-11.6 9.21-25.32 15.6-36.8 25.16-3.78 3.16-9.39 10.14-14.58 9.01-.36-3.5.31-8.13 2.2-11.34 4.88-8.27 42.68-33.84 51.8-35Zm-8 22.54c2.54 12.4-13.15 24.41-9.64 37.85 1.25 4.79 4.17 12.62 10.53 11.27 6.29-1.34 6.79-10.63 11.45-12.38-.44 11.45-14.72 35.22-25.56 18.77-9.82-14.9 3.03-43.27 13.22-55.51Z"/>
</svg>
